<svg id="图层_1" data-name="图层 1" xmlns="http://www.w3.org/2000/svg" viewBox="0 0 28 28"><defs><style>.cls-1{fill:#fdc501;}.cls-2{fill:#fff;}.cls-3{fill:#2583ec;}.cls-4{fill:none;}</style></defs><title>地点</title><path class="cls-1" d="M21,12.12c-.14,5.46-7,11.76-7,11.76S7.14,17.3,7,12.12a7,7,0,0,1,14,0Z"/><circle class="cls-2" cx="14" cy="12.12" r="5.04"/><path class="cls-3" d="M12,14.92h-.77a.29.29,0,0,1-.16-.05,1.84,1.84,0,0,1-.89-1.35v-.84a1.56,1.56,0,0,1,.84-1.12,3,3,0,0,1,3.08-3.08,2.91,2.91,0,0,1,2.8,3.08,2.57,2.57,0,0,1,.56.28c.28.28.28.56.28,1.4a2.19,2.19,0,0,1-.56,1.4l-.21.21a.23.23,0,0,1-.16.07h-.67a.28.28,0,0,1-.15,0,1,1,0,0,1-.48-.79v-2a.55.55,0,0,1,.56-.56S16,9.32,14.28,9.32c-.56,0-2-.28-2.38,2.24a.55.55,0,0,1,.56.56h0v2.19a.2.2,0,0,1,0,.09l-.2.4A.22.22,0,0,1,12,14.92Z"/><rect class="cls-4" width="28" height="28"/></svg>